<mxfile host="app.diagrams.net" modified="2024-07-03T16:23:29.813Z" agent="Mozilla/5.0 (Windows NT 10.0; Win64; x64) AppleWebKit/537.36 (KHTML, like Gecko) Chrome/126.0.0.0 Safari/537.36 Edg/126.0.0.0" etag="rsOi6o4k7i4x2w41U-B2" version="24.6.4" type="device" pages="2">
  <diagram id="C5RBs43oDa-KdzZeNtuy" name="Task1">
    <mxGraphModel dx="604" dy="728" grid="1" gridSize="10" guides="1" tooltips="1" connect="1" arrows="1" fold="1" page="1" pageScale="1" pageWidth="827" pageHeight="1169" math="0" shadow="0">
      <root>
        <mxCell id="WIyWlLk6GJQsqaUBKTNV-0" />
        <mxCell id="WIyWlLk6GJQsqaUBKTNV-1" parent="WIyWlLk6GJQsqaUBKTNV-0" />
        <mxCell id="HkTRLLcmgr4Vj_mz44pl-2" style="edgeStyle=none;curved=1;rounded=0;orthogonalLoop=1;jettySize=auto;html=1;exitX=0.5;exitY=1;exitDx=0;exitDy=0;exitPerimeter=0;fontSize=12;startSize=8;endSize=8;entryX=0.5;entryY=0;entryDx=0;entryDy=0;" edge="1" parent="WIyWlLk6GJQsqaUBKTNV-1" source="HkTRLLcmgr4Vj_mz44pl-1" target="HkTRLLcmgr4Vj_mz44pl-3">
          <mxGeometry relative="1" as="geometry">
            <mxPoint x="140" y="200" as="targetPoint" />
          </mxGeometry>
        </mxCell>
        <mxCell id="HkTRLLcmgr4Vj_mz44pl-1" value="Start" style="strokeWidth=2;html=1;shape=mxgraph.flowchart.start_1;whiteSpace=wrap;" vertex="1" parent="WIyWlLk6GJQsqaUBKTNV-1">
          <mxGeometry x="80" y="80" width="120" height="80" as="geometry" />
        </mxCell>
        <mxCell id="HkTRLLcmgr4Vj_mz44pl-6" value="" style="edgeStyle=none;curved=1;rounded=0;orthogonalLoop=1;jettySize=auto;html=1;fontSize=12;startSize=8;endSize=8;entryX=0.5;entryY=0;entryDx=0;entryDy=0;exitX=0.5;exitY=1;exitDx=0;exitDy=0;" edge="1" parent="WIyWlLk6GJQsqaUBKTNV-1" source="HkTRLLcmgr4Vj_mz44pl-3" target="HkTRLLcmgr4Vj_mz44pl-5">
          <mxGeometry relative="1" as="geometry" />
        </mxCell>
        <mxCell id="HkTRLLcmgr4Vj_mz44pl-3" value="Word" style="shape=parallelogram;html=1;strokeWidth=2;perimeter=parallelogramPerimeter;whiteSpace=wrap;rounded=1;arcSize=12;size=0.23;" vertex="1" parent="WIyWlLk6GJQsqaUBKTNV-1">
          <mxGeometry x="40" y="200" width="200" height="80" as="geometry" />
        </mxCell>
        <mxCell id="HkTRLLcmgr4Vj_mz44pl-8" value="" style="edgeStyle=none;curved=1;rounded=0;orthogonalLoop=1;jettySize=auto;html=1;fontSize=12;startSize=8;endSize=8;" edge="1" parent="WIyWlLk6GJQsqaUBKTNV-1" source="HkTRLLcmgr4Vj_mz44pl-5" target="HkTRLLcmgr4Vj_mz44pl-7">
          <mxGeometry relative="1" as="geometry" />
        </mxCell>
        <mxCell id="HkTRLLcmgr4Vj_mz44pl-5" value="" style="verticalLabelPosition=bottom;verticalAlign=top;html=1;shape=process;whiteSpace=wrap;rounded=1;size=0.14;arcSize=0;align=center;horizontal=1;" vertex="1" parent="WIyWlLk6GJQsqaUBKTNV-1">
          <mxGeometry x="40" y="320" width="200" height="80" as="geometry" />
        </mxCell>
        <mxCell id="HkTRLLcmgr4Vj_mz44pl-11" value="" style="edgeStyle=none;curved=1;rounded=0;orthogonalLoop=1;jettySize=auto;html=1;fontSize=12;startSize=8;endSize=8;" edge="1" parent="WIyWlLk6GJQsqaUBKTNV-1" source="HkTRLLcmgr4Vj_mz44pl-7" target="HkTRLLcmgr4Vj_mz44pl-10">
          <mxGeometry relative="1" as="geometry" />
        </mxCell>
        <mxCell id="HkTRLLcmgr4Vj_mz44pl-7" value="Result" style="rounded=1;whiteSpace=wrap;html=1;" vertex="1" parent="WIyWlLk6GJQsqaUBKTNV-1">
          <mxGeometry x="40" y="440" width="200" height="80" as="geometry" />
        </mxCell>
        <mxCell id="HkTRLLcmgr4Vj_mz44pl-9" value="&lt;span style=&quot;font-size: 12px; text-wrap: wrap;&quot;&gt;wordScript&lt;/span&gt;" style="text;html=1;align=center;verticalAlign=middle;resizable=0;points=[];autosize=1;strokeColor=none;fillColor=none;fontSize=16;" vertex="1" parent="WIyWlLk6GJQsqaUBKTNV-1">
          <mxGeometry x="100" y="345" width="80" height="30" as="geometry" />
        </mxCell>
        <mxCell id="HkTRLLcmgr4Vj_mz44pl-10" value="End" style="ellipse;whiteSpace=wrap;html=1;rounded=1;" vertex="1" parent="WIyWlLk6GJQsqaUBKTNV-1">
          <mxGeometry x="80" y="560" width="120" height="80" as="geometry" />
        </mxCell>
        <mxCell id="HkTRLLcmgr4Vj_mz44pl-14" value="" style="edgeStyle=none;curved=1;rounded=0;orthogonalLoop=1;jettySize=auto;html=1;fontSize=12;startSize=8;endSize=8;" edge="1" parent="WIyWlLk6GJQsqaUBKTNV-1" source="HkTRLLcmgr4Vj_mz44pl-12" target="HkTRLLcmgr4Vj_mz44pl-13">
          <mxGeometry relative="1" as="geometry" />
        </mxCell>
        <mxCell id="HkTRLLcmgr4Vj_mz44pl-12" value="wordScript" style="strokeWidth=2;html=1;shape=mxgraph.flowchart.start_1;whiteSpace=wrap;" vertex="1" parent="WIyWlLk6GJQsqaUBKTNV-1">
          <mxGeometry x="520" y="80" width="120" height="80" as="geometry" />
        </mxCell>
        <mxCell id="HkTRLLcmgr4Vj_mz44pl-21" style="edgeStyle=none;curved=1;rounded=0;orthogonalLoop=1;jettySize=auto;html=1;entryX=0.5;entryY=0;entryDx=0;entryDy=0;fontSize=12;startSize=8;endSize=8;" edge="1" parent="WIyWlLk6GJQsqaUBKTNV-1" target="HkTRLLcmgr4Vj_mz44pl-17">
          <mxGeometry relative="1" as="geometry">
            <mxPoint x="440" y="240" as="sourcePoint" />
          </mxGeometry>
        </mxCell>
        <mxCell id="HkTRLLcmgr4Vj_mz44pl-23" style="edgeStyle=none;curved=1;rounded=0;orthogonalLoop=1;jettySize=auto;html=1;exitX=0;exitY=0.5;exitDx=0;exitDy=0;exitPerimeter=0;fontSize=12;startSize=8;endSize=8;" edge="1" parent="WIyWlLk6GJQsqaUBKTNV-1" source="HkTRLLcmgr4Vj_mz44pl-13">
          <mxGeometry relative="1" as="geometry">
            <mxPoint x="499.52941176470586" y="240.23529411764707" as="targetPoint" />
          </mxGeometry>
        </mxCell>
        <mxCell id="HkTRLLcmgr4Vj_mz44pl-13" value="word[-3, 2] == &quot;CS&quot;" style="strokeWidth=2;html=1;shape=mxgraph.flowchart.decision;whiteSpace=wrap;" vertex="1" parent="WIyWlLk6GJQsqaUBKTNV-1">
          <mxGeometry x="500" y="200" width="160" height="80" as="geometry" />
        </mxCell>
        <mxCell id="HkTRLLcmgr4Vj_mz44pl-17" value="Result = 2**word.size-1" style="rounded=1;whiteSpace=wrap;html=1;" vertex="1" parent="WIyWlLk6GJQsqaUBKTNV-1">
          <mxGeometry x="360" y="320" width="160" height="80" as="geometry" />
        </mxCell>
        <mxCell id="HkTRLLcmgr4Vj_mz44pl-22" style="edgeStyle=none;curved=1;rounded=0;orthogonalLoop=1;jettySize=auto;html=1;exitX=0;exitY=0.5;exitDx=0;exitDy=0;fontSize=12;startSize=8;endSize=8;" edge="1" parent="WIyWlLk6GJQsqaUBKTNV-1" source="HkTRLLcmgr4Vj_mz44pl-17" target="HkTRLLcmgr4Vj_mz44pl-17">
          <mxGeometry relative="1" as="geometry" />
        </mxCell>
        <mxCell id="HkTRLLcmgr4Vj_mz44pl-24" value="" style="endArrow=none;html=1;rounded=0;fontSize=12;startSize=8;endSize=8;curved=1;entryX=0;entryY=0.5;entryDx=0;entryDy=0;entryPerimeter=0;" edge="1" parent="WIyWlLk6GJQsqaUBKTNV-1" target="HkTRLLcmgr4Vj_mz44pl-13">
          <mxGeometry width="50" height="50" relative="1" as="geometry">
            <mxPoint x="440" y="240" as="sourcePoint" />
            <mxPoint x="400" y="140" as="targetPoint" />
          </mxGeometry>
        </mxCell>
        <mxCell id="HkTRLLcmgr4Vj_mz44pl-25" value="Result = word.reverse" style="rounded=1;whiteSpace=wrap;html=1;" vertex="1" parent="WIyWlLk6GJQsqaUBKTNV-1">
          <mxGeometry x="640" y="320" width="160" height="80" as="geometry" />
        </mxCell>
        <mxCell id="HkTRLLcmgr4Vj_mz44pl-26" style="edgeStyle=none;curved=1;rounded=0;orthogonalLoop=1;jettySize=auto;html=1;entryX=0.5;entryY=0;entryDx=0;entryDy=0;fontSize=12;startSize=8;endSize=8;" edge="1" parent="WIyWlLk6GJQsqaUBKTNV-1">
          <mxGeometry relative="1" as="geometry">
            <mxPoint x="720" y="240" as="sourcePoint" />
            <mxPoint x="720" y="320" as="targetPoint" />
          </mxGeometry>
        </mxCell>
        <mxCell id="HkTRLLcmgr4Vj_mz44pl-27" value="" style="endArrow=none;html=1;rounded=0;fontSize=12;startSize=8;endSize=8;curved=1;exitX=1;exitY=0.5;exitDx=0;exitDy=0;exitPerimeter=0;" edge="1" parent="WIyWlLk6GJQsqaUBKTNV-1" source="HkTRLLcmgr4Vj_mz44pl-13">
          <mxGeometry width="50" height="50" relative="1" as="geometry">
            <mxPoint x="690" y="190" as="sourcePoint" />
            <mxPoint x="720" y="240" as="targetPoint" />
          </mxGeometry>
        </mxCell>
        <mxCell id="HkTRLLcmgr4Vj_mz44pl-28" value="End" style="ellipse;whiteSpace=wrap;html=1;rounded=1;" vertex="1" parent="WIyWlLk6GJQsqaUBKTNV-1">
          <mxGeometry x="520" y="480" width="120" height="80" as="geometry" />
        </mxCell>
        <mxCell id="HkTRLLcmgr4Vj_mz44pl-29" value="" style="endArrow=classic;html=1;rounded=0;fontSize=12;startSize=8;endSize=8;curved=1;entryX=0.5;entryY=0;entryDx=0;entryDy=0;" edge="1" parent="WIyWlLk6GJQsqaUBKTNV-1" target="HkTRLLcmgr4Vj_mz44pl-28">
          <mxGeometry width="50" height="50" relative="1" as="geometry">
            <mxPoint x="580" y="440" as="sourcePoint" />
            <mxPoint x="480" y="480" as="targetPoint" />
          </mxGeometry>
        </mxCell>
        <mxCell id="HkTRLLcmgr4Vj_mz44pl-30" value="" style="endArrow=none;html=1;rounded=0;fontSize=12;startSize=8;endSize=8;curved=1;exitX=0.5;exitY=1;exitDx=0;exitDy=0;" edge="1" parent="WIyWlLk6GJQsqaUBKTNV-1" source="HkTRLLcmgr4Vj_mz44pl-17">
          <mxGeometry width="50" height="50" relative="1" as="geometry">
            <mxPoint x="420" y="500" as="sourcePoint" />
            <mxPoint x="440" y="440" as="targetPoint" />
          </mxGeometry>
        </mxCell>
        <mxCell id="HkTRLLcmgr4Vj_mz44pl-31" value="" style="endArrow=none;html=1;rounded=0;fontSize=12;startSize=8;endSize=8;curved=1;" edge="1" parent="WIyWlLk6GJQsqaUBKTNV-1">
          <mxGeometry width="50" height="50" relative="1" as="geometry">
            <mxPoint x="440" y="440" as="sourcePoint" />
            <mxPoint x="580" y="440" as="targetPoint" />
          </mxGeometry>
        </mxCell>
        <mxCell id="HkTRLLcmgr4Vj_mz44pl-32" value="" style="endArrow=none;html=1;rounded=0;fontSize=12;startSize=8;endSize=8;curved=1;" edge="1" parent="WIyWlLk6GJQsqaUBKTNV-1">
          <mxGeometry width="50" height="50" relative="1" as="geometry">
            <mxPoint x="720" y="400" as="sourcePoint" />
            <mxPoint x="720" y="440" as="targetPoint" />
          </mxGeometry>
        </mxCell>
        <mxCell id="HkTRLLcmgr4Vj_mz44pl-33" value="" style="endArrow=none;html=1;rounded=0;fontSize=12;startSize=8;endSize=8;curved=1;" edge="1" parent="WIyWlLk6GJQsqaUBKTNV-1">
          <mxGeometry width="50" height="50" relative="1" as="geometry">
            <mxPoint x="580" y="440" as="sourcePoint" />
            <mxPoint x="720" y="440" as="targetPoint" />
          </mxGeometry>
        </mxCell>
        <mxCell id="lEAxnzuuUBzqe5N5U0Ay-0" value="" style="strokeWidth=2;html=1;shape=mxgraph.flowchart.annotation_2;align=left;labelPosition=right;pointerEvents=1;" vertex="1" parent="WIyWlLk6GJQsqaUBKTNV-1">
          <mxGeometry x="640" y="70" width="50" height="100" as="geometry" />
        </mxCell>
        <mxCell id="lEAxnzuuUBzqe5N5U0Ay-1" value="word" style="text;html=1;align=center;verticalAlign=middle;resizable=0;points=[];autosize=1;strokeColor=none;fillColor=none;fontSize=16;" vertex="1" parent="WIyWlLk6GJQsqaUBKTNV-1">
          <mxGeometry x="670" y="105" width="60" height="30" as="geometry" />
        </mxCell>
      </root>
    </mxGraphModel>
  </diagram>
  <diagram name="Task2" id="550rjFKJgZKtr0S-Ppd-">
    <mxGraphModel dx="1042" dy="577" grid="1" gridSize="10" guides="1" tooltips="1" connect="1" arrows="1" fold="1" page="1" pageScale="1" pageWidth="827" pageHeight="1169" math="0" shadow="0">
      <root>
        <mxCell id="2wDqETJa-RMLqcgSMXOF-0" />
        <mxCell id="2wDqETJa-RMLqcgSMXOF-1" parent="2wDqETJa-RMLqcgSMXOF-0" />
        <mxCell id="2wDqETJa-RMLqcgSMXOF-2" style="edgeStyle=none;curved=1;rounded=0;orthogonalLoop=1;jettySize=auto;html=1;exitX=0.5;exitY=1;exitDx=0;exitDy=0;exitPerimeter=0;fontSize=12;startSize=8;endSize=8;entryX=0.5;entryY=0;entryDx=0;entryDy=0;" parent="2wDqETJa-RMLqcgSMXOF-1" source="2wDqETJa-RMLqcgSMXOF-3" edge="1">
          <mxGeometry relative="1" as="geometry">
            <mxPoint x="139.9999999999999" y="200" as="targetPoint" />
          </mxGeometry>
        </mxCell>
        <mxCell id="2wDqETJa-RMLqcgSMXOF-3" value="Start" style="strokeWidth=2;html=1;shape=mxgraph.flowchart.start_1;whiteSpace=wrap;" parent="2wDqETJa-RMLqcgSMXOF-1" vertex="1">
          <mxGeometry x="80" y="80" width="120" height="80" as="geometry" />
        </mxCell>
        <mxCell id="Yw8fnJQZGSigzkMwDwFP-1" style="edgeStyle=none;curved=1;rounded=0;orthogonalLoop=1;jettySize=auto;html=1;exitX=0.5;exitY=1;exitDx=0;exitDy=0;entryX=0.5;entryY=0;entryDx=0;entryDy=0;fontSize=12;startSize=8;endSize=8;" parent="2wDqETJa-RMLqcgSMXOF-1" source="8UeMSNgwqLgagkfEBxLJ-0" target="8UeMSNgwqLgagkfEBxLJ-2" edge="1">
          <mxGeometry relative="1" as="geometry" />
        </mxCell>
        <mxCell id="8UeMSNgwqLgagkfEBxLJ-0" value="" style="verticalLabelPosition=bottom;verticalAlign=top;html=1;shape=process;whiteSpace=wrap;rounded=1;size=0.14;arcSize=6;" parent="2wDqETJa-RMLqcgSMXOF-1" vertex="1">
          <mxGeometry x="40" y="200" width="200" height="80" as="geometry" />
        </mxCell>
        <mxCell id="8UeMSNgwqLgagkfEBxLJ-1" value="numPok()" style="text;html=1;align=center;verticalAlign=middle;resizable=0;points=[];autosize=1;strokeColor=none;fillColor=none;fontSize=16;" parent="2wDqETJa-RMLqcgSMXOF-1" vertex="1">
          <mxGeometry x="95" y="225" width="90" height="30" as="geometry" />
        </mxCell>
        <mxCell id="Yw8fnJQZGSigzkMwDwFP-4" style="edgeStyle=none;curved=1;rounded=0;orthogonalLoop=1;jettySize=auto;html=1;exitX=0.5;exitY=1;exitDx=0;exitDy=0;entryX=0.5;entryY=0;entryDx=0;entryDy=0;fontSize=12;startSize=8;endSize=8;" parent="2wDqETJa-RMLqcgSMXOF-1" source="8UeMSNgwqLgagkfEBxLJ-2" target="Yw8fnJQZGSigzkMwDwFP-2" edge="1">
          <mxGeometry relative="1" as="geometry" />
        </mxCell>
        <mxCell id="8UeMSNgwqLgagkfEBxLJ-2" value="" style="verticalLabelPosition=bottom;verticalAlign=top;html=1;shape=process;whiteSpace=wrap;rounded=1;size=0.14;arcSize=6;" parent="2wDqETJa-RMLqcgSMXOF-1" vertex="1">
          <mxGeometry x="40" y="320" width="200" height="80" as="geometry" />
        </mxCell>
        <mxCell id="8UeMSNgwqLgagkfEBxLJ-3" value="createPok()" style="text;html=1;align=center;verticalAlign=middle;resizable=0;points=[];autosize=1;strokeColor=none;fillColor=none;fontSize=16;" parent="2wDqETJa-RMLqcgSMXOF-1" vertex="1">
          <mxGeometry x="85" y="345" width="110" height="30" as="geometry" />
        </mxCell>
        <mxCell id="Yw8fnJQZGSigzkMwDwFP-6" value="" style="edgeStyle=none;curved=1;rounded=0;orthogonalLoop=1;jettySize=auto;html=1;fontSize=12;startSize=8;endSize=8;" parent="2wDqETJa-RMLqcgSMXOF-1" source="Yw8fnJQZGSigzkMwDwFP-2" target="Yw8fnJQZGSigzkMwDwFP-5" edge="1">
          <mxGeometry relative="1" as="geometry" />
        </mxCell>
        <mxCell id="Yw8fnJQZGSigzkMwDwFP-2" value="" style="verticalLabelPosition=bottom;verticalAlign=top;html=1;shape=process;whiteSpace=wrap;rounded=1;size=0.14;arcSize=6;" parent="2wDqETJa-RMLqcgSMXOF-1" vertex="1">
          <mxGeometry x="40" y="440" width="200" height="80" as="geometry" />
        </mxCell>
        <mxCell id="Yw8fnJQZGSigzkMwDwFP-3" value="printPok()" style="text;html=1;align=center;verticalAlign=middle;resizable=0;points=[];autosize=1;strokeColor=none;fillColor=none;fontSize=16;" parent="2wDqETJa-RMLqcgSMXOF-1" vertex="1">
          <mxGeometry x="95" y="465" width="90" height="30" as="geometry" />
        </mxCell>
        <mxCell id="Yw8fnJQZGSigzkMwDwFP-8" style="edgeStyle=none;curved=1;rounded=0;orthogonalLoop=1;jettySize=auto;html=1;exitX=0.5;exitY=1;exitDx=0;exitDy=0;entryX=0.5;entryY=0;entryDx=0;entryDy=0;fontSize=12;startSize=8;endSize=8;" parent="2wDqETJa-RMLqcgSMXOF-1" source="Yw8fnJQZGSigzkMwDwFP-5" target="Yw8fnJQZGSigzkMwDwFP-7" edge="1">
          <mxGeometry relative="1" as="geometry" />
        </mxCell>
        <mxCell id="Yw8fnJQZGSigzkMwDwFP-5" value="Result = pokemons" style="rounded=1;whiteSpace=wrap;html=1;" parent="2wDqETJa-RMLqcgSMXOF-1" vertex="1">
          <mxGeometry x="40" y="560" width="200" height="80" as="geometry" />
        </mxCell>
        <mxCell id="Yw8fnJQZGSigzkMwDwFP-7" value="End" style="ellipse;whiteSpace=wrap;html=1;rounded=1;" parent="2wDqETJa-RMLqcgSMXOF-1" vertex="1">
          <mxGeometry x="80" y="680" width="120" height="80" as="geometry" />
        </mxCell>
        <mxCell id="Yw8fnJQZGSigzkMwDwFP-12" value="" style="edgeStyle=none;curved=1;rounded=0;orthogonalLoop=1;jettySize=auto;html=1;fontSize=12;startSize=8;endSize=8;" parent="2wDqETJa-RMLqcgSMXOF-1" source="Yw8fnJQZGSigzkMwDwFP-10" target="Yw8fnJQZGSigzkMwDwFP-11" edge="1">
          <mxGeometry relative="1" as="geometry" />
        </mxCell>
        <mxCell id="Yw8fnJQZGSigzkMwDwFP-10" value="numPok()" style="strokeWidth=2;html=1;shape=mxgraph.flowchart.start_1;whiteSpace=wrap;" parent="2wDqETJa-RMLqcgSMXOF-1" vertex="1">
          <mxGeometry x="400" y="80" width="120" height="80" as="geometry" />
        </mxCell>
        <mxCell id="Yw8fnJQZGSigzkMwDwFP-15" value="" style="edgeStyle=none;curved=1;rounded=0;orthogonalLoop=1;jettySize=auto;html=1;fontSize=12;startSize=8;endSize=8;" parent="2wDqETJa-RMLqcgSMXOF-1" source="Yw8fnJQZGSigzkMwDwFP-11" target="Yw8fnJQZGSigzkMwDwFP-13" edge="1">
          <mxGeometry relative="1" as="geometry" />
        </mxCell>
        <mxCell id="Yw8fnJQZGSigzkMwDwFP-11" value="num" style="shape=parallelogram;html=1;strokeWidth=2;perimeter=parallelogramPerimeter;whiteSpace=wrap;rounded=1;arcSize=12;size=0.23;" parent="2wDqETJa-RMLqcgSMXOF-1" vertex="1">
          <mxGeometry x="380" y="200" width="160" height="80" as="geometry" />
        </mxCell>
        <mxCell id="Yw8fnJQZGSigzkMwDwFP-16" value="" style="edgeStyle=none;curved=1;rounded=0;orthogonalLoop=1;jettySize=auto;html=1;fontSize=12;startSize=8;endSize=8;" parent="2wDqETJa-RMLqcgSMXOF-1" source="Yw8fnJQZGSigzkMwDwFP-13" target="Yw8fnJQZGSigzkMwDwFP-14" edge="1">
          <mxGeometry relative="1" as="geometry" />
        </mxCell>
        <mxCell id="Yw8fnJQZGSigzkMwDwFP-13" value="Result = num" style="rounded=1;whiteSpace=wrap;html=1;" parent="2wDqETJa-RMLqcgSMXOF-1" vertex="1">
          <mxGeometry x="360" y="320" width="200" height="80" as="geometry" />
        </mxCell>
        <mxCell id="Yw8fnJQZGSigzkMwDwFP-14" value="End" style="ellipse;whiteSpace=wrap;html=1;rounded=1;" parent="2wDqETJa-RMLqcgSMXOF-1" vertex="1">
          <mxGeometry x="400" y="440" width="120" height="80" as="geometry" />
        </mxCell>
        <mxCell id="Yw8fnJQZGSigzkMwDwFP-19" value="" style="edgeStyle=none;curved=1;rounded=0;orthogonalLoop=1;jettySize=auto;html=1;fontSize=12;startSize=8;endSize=8;" parent="2wDqETJa-RMLqcgSMXOF-1" source="Yw8fnJQZGSigzkMwDwFP-17" target="Yw8fnJQZGSigzkMwDwFP-18" edge="1">
          <mxGeometry relative="1" as="geometry" />
        </mxCell>
        <mxCell id="Yw8fnJQZGSigzkMwDwFP-17" value="createPok()" style="strokeWidth=2;html=1;shape=mxgraph.flowchart.start_1;whiteSpace=wrap;" parent="2wDqETJa-RMLqcgSMXOF-1" vertex="1">
          <mxGeometry x="760" y="80" width="120" height="80" as="geometry" />
        </mxCell>
        <mxCell id="Yw8fnJQZGSigzkMwDwFP-18" value="num &amp;gt; 0" style="strokeWidth=2;html=1;shape=mxgraph.flowchart.decision;whiteSpace=wrap;" parent="2wDqETJa-RMLqcgSMXOF-1" vertex="1">
          <mxGeometry x="760" y="200" width="120" height="80" as="geometry" />
        </mxCell>
        <mxCell id="Yw8fnJQZGSigzkMwDwFP-21" value="" style="endArrow=none;html=1;rounded=0;fontSize=12;startSize=8;endSize=8;curved=1;entryX=1;entryY=0.5;entryDx=0;entryDy=0;entryPerimeter=0;" parent="2wDqETJa-RMLqcgSMXOF-1" target="Yw8fnJQZGSigzkMwDwFP-18" edge="1">
          <mxGeometry width="50" height="50" relative="1" as="geometry">
            <mxPoint x="920" y="240" as="sourcePoint" />
            <mxPoint x="800" y="410" as="targetPoint" />
          </mxGeometry>
        </mxCell>
        <mxCell id="Yw8fnJQZGSigzkMwDwFP-22" value="" style="endArrow=classic;html=1;rounded=0;fontSize=12;startSize=8;endSize=8;curved=1;entryX=0.5;entryY=0;entryDx=0;entryDy=0;" parent="2wDqETJa-RMLqcgSMXOF-1" target="Yw8fnJQZGSigzkMwDwFP-23" edge="1">
          <mxGeometry width="50" height="50" relative="1" as="geometry">
            <mxPoint x="920" y="240" as="sourcePoint" />
            <mxPoint x="920" y="320" as="targetPoint" />
          </mxGeometry>
        </mxCell>
        <mxCell id="Yw8fnJQZGSigzkMwDwFP-23" value="num -= 1" style="rounded=0;whiteSpace=wrap;html=1;" parent="2wDqETJa-RMLqcgSMXOF-1" vertex="1">
          <mxGeometry x="840" y="320" width="160" height="80" as="geometry" />
        </mxCell>
        <mxCell id="Yw8fnJQZGSigzkMwDwFP-24" value="" style="endArrow=classic;html=1;rounded=0;fontSize=12;startSize=8;endSize=8;curved=1;" parent="2wDqETJa-RMLqcgSMXOF-1" edge="1">
          <mxGeometry width="50" height="50" relative="1" as="geometry">
            <mxPoint x="1040" y="180" as="sourcePoint" />
            <mxPoint x="820" y="180" as="targetPoint" />
          </mxGeometry>
        </mxCell>
        <mxCell id="Yw8fnJQZGSigzkMwDwFP-25" value="" style="endArrow=none;html=1;rounded=0;fontSize=12;startSize=8;endSize=8;curved=1;exitX=0.5;exitY=1;exitDx=0;exitDy=0;" parent="2wDqETJa-RMLqcgSMXOF-1" source="Yw8fnJQZGSigzkMwDwFP-23" edge="1">
          <mxGeometry width="50" height="50" relative="1" as="geometry">
            <mxPoint x="1020" y="480" as="sourcePoint" />
            <mxPoint x="920" y="440" as="targetPoint" />
          </mxGeometry>
        </mxCell>
        <mxCell id="Yw8fnJQZGSigzkMwDwFP-27" value="" style="endArrow=none;html=1;rounded=0;fontSize=12;startSize=8;endSize=8;curved=1;" parent="2wDqETJa-RMLqcgSMXOF-1" edge="1">
          <mxGeometry width="50" height="50" relative="1" as="geometry">
            <mxPoint x="920" y="440" as="sourcePoint" />
            <mxPoint x="1040" y="440" as="targetPoint" />
          </mxGeometry>
        </mxCell>
        <mxCell id="Yw8fnJQZGSigzkMwDwFP-29" value="" style="endArrow=none;html=1;rounded=0;fontSize=12;startSize=8;endSize=8;curved=1;" parent="2wDqETJa-RMLqcgSMXOF-1" edge="1">
          <mxGeometry width="50" height="50" relative="1" as="geometry">
            <mxPoint x="1040" y="440" as="sourcePoint" />
            <mxPoint x="1040" y="180" as="targetPoint" />
          </mxGeometry>
        </mxCell>
        <mxCell id="Yw8fnJQZGSigzkMwDwFP-32" value="" style="edgeStyle=none;curved=1;rounded=0;orthogonalLoop=1;jettySize=auto;html=1;fontSize=12;startSize=8;endSize=8;" parent="2wDqETJa-RMLqcgSMXOF-1" source="Yw8fnJQZGSigzkMwDwFP-30" target="Yw8fnJQZGSigzkMwDwFP-31" edge="1">
          <mxGeometry relative="1" as="geometry" />
        </mxCell>
        <mxCell id="Yw8fnJQZGSigzkMwDwFP-30" value="Result = pokemons" style="rounded=1;whiteSpace=wrap;html=1;" parent="2wDqETJa-RMLqcgSMXOF-1" vertex="1">
          <mxGeometry x="640" y="320" width="160" height="80" as="geometry" />
        </mxCell>
        <mxCell id="Yw8fnJQZGSigzkMwDwFP-31" value="End" style="ellipse;whiteSpace=wrap;html=1;rounded=1;" parent="2wDqETJa-RMLqcgSMXOF-1" vertex="1">
          <mxGeometry x="660" y="440" width="120" height="80" as="geometry" />
        </mxCell>
        <mxCell id="Yw8fnJQZGSigzkMwDwFP-33" value="" style="endArrow=none;html=1;rounded=0;fontSize=12;startSize=8;endSize=8;curved=1;entryX=0;entryY=0.5;entryDx=0;entryDy=0;entryPerimeter=0;" parent="2wDqETJa-RMLqcgSMXOF-1" target="Yw8fnJQZGSigzkMwDwFP-18" edge="1">
          <mxGeometry width="50" height="50" relative="1" as="geometry">
            <mxPoint x="720" y="240" as="sourcePoint" />
            <mxPoint x="680" y="230" as="targetPoint" />
          </mxGeometry>
        </mxCell>
        <mxCell id="Yw8fnJQZGSigzkMwDwFP-34" value="" style="endArrow=classic;html=1;rounded=0;fontSize=12;startSize=8;endSize=8;curved=1;entryX=0.5;entryY=0;entryDx=0;entryDy=0;" parent="2wDqETJa-RMLqcgSMXOF-1" target="Yw8fnJQZGSigzkMwDwFP-30" edge="1">
          <mxGeometry width="50" height="50" relative="1" as="geometry">
            <mxPoint x="720" y="240" as="sourcePoint" />
            <mxPoint x="670" y="200" as="targetPoint" />
          </mxGeometry>
        </mxCell>
        <mxCell id="wc83m4xRSNlLGk6Yygja-0" value="" style="strokeWidth=2;html=1;shape=mxgraph.flowchart.annotation_2;align=left;labelPosition=right;pointerEvents=1;" vertex="1" parent="2wDqETJa-RMLqcgSMXOF-1">
          <mxGeometry x="880" y="70" width="50" height="100" as="geometry" />
        </mxCell>
        <mxCell id="J6aMK5pB9umz_IJbjsyo-0" value="num" style="text;html=1;align=center;verticalAlign=middle;resizable=0;points=[];autosize=1;strokeColor=none;fillColor=none;" vertex="1" parent="2wDqETJa-RMLqcgSMXOF-1">
          <mxGeometry x="900" y="105" width="50" height="30" as="geometry" />
        </mxCell>
      </root>
    </mxGraphModel>
  </diagram>
</mxfile>
